<svg xmlns="http://www.w3.org/2000/svg" width="300" height="300" viewBox="0 0 300 300">
  <defs>
    <style>
      .cls-1 {
        fill-rule: evenodd;
      }
    </style>
  </defs>
  <path id="FG._" data-name="FG. " class="cls-1" d="M36.563,218.422v-53.24H89.537V135.368H36.563V111.943h58.83V82.128H-0.439V218.422h37Zm202.76-91.306a47.221,47.221,0,0,0-5.99-18.834,51.082,51.082,0,0,0-12.944-14.874,59.958,59.958,0,0,0-18.434-9.716,75.012,75.012,0,0,0-48.348,1.2,61.41,61.41,0,0,0-21.23,13.643,62.816,62.816,0,0,0-14.341,22.061q-5.159,13.044-5.158,29.948,0,21.561,8.419,37.2a59.14,59.14,0,0,0,23.459,24.091q15.039,8.452,34.938,8.452,17.835,0,31.645-7.021a52.44,52.44,0,0,0,21.695-20.231q7.886-13.21,7.886-31.845v-18.9H180.493v26.354h31.145l-6.389-.665a19.846,19.846,0,0,1-2.795,10.648,18.029,18.029,0,0,1-8.418,6.987,35.177,35.177,0,0,1-14.076,2.463q-9.582,0-16.038-4.526a27.3,27.3,0,0,1-9.716-13.044q-3.262-8.517-3.261-20.5,0-11.844,3.427-20.231a26.179,26.179,0,0,1,25.855-17.3,30.9,30.9,0,0,1,7.952.965,20.488,20.488,0,0,1,6.389,2.862,17.842,17.842,0,0,1,4.625,4.592,18.639,18.639,0,0,1,2.729,6.222h37.4Zm50.651,90.94a19.971,19.971,0,0,0,6.822-6.721,17.927,17.927,0,0,0,2.695-9.417,17.563,17.563,0,0,0-5.69-12.977,18.555,18.555,0,0,0-26.154,0,17.3,17.3,0,0,0-5.424,12.977,17.635,17.635,0,0,0,5.424,13.21,18.119,18.119,0,0,0,13.21,5.424A17.5,17.5,0,0,0,289.974,218.056Z"/>
</svg>
