<svg xmlns="http://www.w3.org/2000/svg" width="300" height="300" viewBox="0 0 300 300">
  <defs>
    <style>
      .cls-1 {
        fill-rule: evenodd;
      }
    </style>
  </defs>
  <path id="FG._" data-name="FG. " class="cls-1" d="M59.11,204.847V162.233h42.4V138.37H59.11V119.62H106.2V95.756h-76.7V204.847H59.11ZM221.4,131.765a37.782,37.782,0,0,0-4.794-15.075,40.887,40.887,0,0,0-10.36-11.9,48,48,0,0,0-14.755-7.777,60.042,60.042,0,0,0-38.7.959A49.156,49.156,0,0,0,135.8,108.886a50.293,50.293,0,0,0-11.479,17.658,64.845,64.845,0,0,0-4.128,23.971q0,17.258,6.738,29.776a47.336,47.336,0,0,0,18.777,19.282q12.038,6.766,27.965,6.765A55.116,55.116,0,0,0,199,200.719a41.964,41.964,0,0,0,17.365-16.193q6.314-10.574,6.313-25.489V143.909H174.313V165h24.929l-5.114-.533a15.882,15.882,0,0,1-2.237,8.523,14.422,14.422,0,0,1-6.738,5.593,28.158,28.158,0,0,1-11.266,1.971A20.467,20.467,0,0,1,153.273,166.5a45.942,45.942,0,0,1-2.61-16.407,42.76,42.76,0,0,1,2.743-16.193A20.955,20.955,0,0,1,174.1,120.046a24.755,24.755,0,0,1,6.365.772,16.4,16.4,0,0,1,5.114,2.291,14.3,14.3,0,0,1,3.7,3.675,14.93,14.93,0,0,1,2.184,4.981H221.4Zm40.542,72.789a15.991,15.991,0,0,0,5.46-5.38,14.351,14.351,0,0,0,2.157-7.537,14.056,14.056,0,0,0-4.554-10.387,14.852,14.852,0,0,0-20.934,0,13.845,13.845,0,0,0-4.341,10.387,14.116,14.116,0,0,0,4.341,10.573,14.5,14.5,0,0,0,10.573,4.341A14.009,14.009,0,0,0,261.943,204.554Z"/>
</svg>
